<svg width="40" height="40" viewBox="0 0 40 40" fill="none" xmlns="http://www.w3.org/2000/svg">
<path d="M24.7034 23.7084H23.7034V24.7084V34.8249C23.7034 36.5811 22.4179 38.0911 20.6446 38.3729C15.2492 39.209 9.74581 39.209 4.35042 38.373C2.5771 38.0911 1.29166 36.5811 1.29166 34.8249V18.6055C1.29166 15.7764 3.56552 13.5025 6.39458 13.5025H18.6004C22.537 13.5025 25.7034 10.3028 25.7034 6.39962V1.67122C25.7034 1.45377 25.8604 1.29669 26.0779 1.29669H34.8199C36.5761 1.29669 38.086 2.58214 38.3679 4.35545C39.204 9.75085 39.204 15.2543 38.3679 20.6496C38.086 22.423 36.5761 23.7084 34.8199 23.7084H24.7034ZM19.3103 29.9978L19.3084 29.9961C18.7383 29.4667 17.8629 29.124 17.0885 29.124C16.2029 29.124 15.4021 29.5302 14.835 30.0973C14.2679 30.6644 13.8617 31.4652 13.8617 32.3508C13.8617 33.2441 14.2812 34.0449 14.8483 34.6072C15.4141 35.1684 16.213 35.5775 17.0885 35.5775C17.9674 35.5775 18.7614 35.1653 19.3242 34.5978C19.8888 34.0286 20.2944 33.2302 20.3149 32.3465L20.3152 32.3349V32.3233C20.3152 31.5058 19.9321 30.5782 19.3103 29.9978Z" stroke="white" stroke-width="2"/>
</svg>
